<?xml version="1.0" encoding="UTF-8"?>
<svg id="Layer_1" xmlns="http://www.w3.org/2000/svg" version="1.1" viewBox="0 0 792 612">
  <!-- Generator: Adobe Illustrator 30.0.0, SVG Export Plug-In . SVG Version: 2.1.1 Build 123)  -->
  <defs>
    <style>
      .st0 {
        fill: #fff;
      }
    </style>
  </defs>
  <g>
    <path class="st0" d="M303.41,290.69l31.04,56.47h-12.74l-5.48-10.21h-25.84l-5.45,10.21h-12.99l31.45-56.47ZM310.95,327.12l-7.68-14.29-7.63,14.29h15.31Z"/>
    <path class="st0" d="M337.01,341.54l6.39-9.22c5.41,3.15,12,4.92,18.16,4.91,5.76-.01,9.37-2.08,9.58-5.49.2-3.27-1.85-4.47-8.26-5.88l-6.72-1.48c-12.1-2.67-16.96-8.19-16.98-16.37-.02-9,9.16-15.67,21.08-15.69,8.08-.01,15.86,2.45,21.44,5.82l-5.97,9.2c-4.39-2.59-9.1-4.3-14.33-4.31-5.58-.02-9.51,1.89-9.49,5.35.02,3.05,2.34,4.53,7.69,5.7l7.39,1.61c11.62,2.54,16.43,7.48,16.44,16.07.02,9.36-8.98,16.18-22.4,16.2-8.62.01-17.78-2.49-24.02-6.4Z"/>
    <path class="st0" d="M405.38,303.84h-17.21l-.07-10.81h46.17v10.81h-17.19v43.33h-11.71v-43.33Z"/>
    <path class="st0" d="M476.01,347.17l-20.77-22.66v22.66h-11.89v-54.14h25.79c12.53,0,20.44,6.37,20.44,17.24s-6.4,16.12-18.12,16.52l20.38,20.38h-15.82ZM455.24,316.94h14.85c4.5,0,7.36-2.22,7.36-6.67s-2.86-6.62-7.36-6.62h-14.85v13.29Z"/>
    <path class="st0" d="M501.72,293.04h11.89v54.14h-11.89v-54.14Z"/>
    <path class="st0" d="M525.23,320.09c0-15.79,12.61-28.09,29.08-28.09s29.07,12.29,29.07,28.09-12.61,28.17-29.07,28.17-29.08-12.38-29.08-28.17ZM571.51,320.11c0-9.97-7.72-17.03-17.24-17.03s-17.23,7.06-17.23,17.03,7.72,17.03,17.23,17.03,17.24-7.06,17.24-17.03Z"/>
    <path class="st0" d="M594.94,293.04h11.77l27.47,36.61v-36.61h11.82v54.14h-11.65l-27.52-36.55v36.55h-11.89v-54.14Z"/>
  </g>
  <g>
    <polygon class="st0" points="146 263.75 245.24 263.75 245.28 281.31 146 319.54 146 263.75"/>
    <polygon class="st0" points="245.24 293.28 245.26 348.25 160.05 348.25 245.24 293.28"/>
    <polygon class="st0" points="290.76 263.81 245.26 293.26 245.26 281.36 290.76 263.81"/>
  </g>
</svg>