<?xml version="1.0" encoding="UTF-8"?>
<svg id="Layer_1" xmlns="http://www.w3.org/2000/svg" version="1.1" viewBox="0 0 792 612">
  <!-- Generator: Adobe Illustrator 30.0.0, SVG Export Plug-In . SVG Version: 2.1.1 Build 123)  -->
  <defs>
    <style>
      .st0 {
        fill: #29aae1;
      }

      .st1 {
        fill: #442c81;
      }
    </style>
  </defs>
  <g>
    <path class="st1" d="M240.43,332.74l31.04,56.47h-12.74l-5.48-10.21h-25.84l-5.45,10.21h-12.99l31.45-56.47ZM247.97,369.16l-7.68-14.29-7.63,14.29h15.31Z"/>
    <path class="st1" d="M274.03,383.58l6.39-9.22c5.41,3.15,12,4.92,18.16,4.91,5.76-.01,9.37-2.08,9.58-5.49.2-3.27-1.85-4.47-8.26-5.88l-6.72-1.48c-12.1-2.67-16.96-8.19-16.98-16.37-.02-9,9.16-15.67,21.08-15.69,8.08-.01,15.86,2.45,21.44,5.82l-5.97,9.2c-4.39-2.59-9.1-4.3-14.33-4.31-5.58-.02-9.51,1.89-9.49,5.35.02,3.05,2.34,4.53,7.69,5.7l7.39,1.61c11.62,2.54,16.43,7.48,16.44,16.07.02,9.36-8.98,16.18-22.4,16.2-8.62.01-17.78-2.49-24.02-6.4Z"/>
    <path class="st1" d="M342.4,345.88h-17.21l-.07-10.81h46.17v10.81h-17.19v43.33h-11.71v-43.33Z"/>
    <path class="st1" d="M413.03,389.22l-20.77-22.66v22.66h-11.89v-54.14h25.79c12.53,0,20.44,6.37,20.44,17.24s-6.4,16.12-18.12,16.52l20.38,20.38h-15.82ZM392.26,358.99h14.85c4.5,0,7.36-2.22,7.36-6.67s-2.86-6.62-7.36-6.62h-14.85v13.29Z"/>
    <path class="st1" d="M438.74,335.08h11.89v54.14h-11.89v-54.14Z"/>
    <path class="st1" d="M462.25,362.13c0-15.79,12.61-28.09,29.08-28.09s29.07,12.29,29.07,28.09-12.61,28.17-29.07,28.17-29.08-12.38-29.08-28.17ZM508.53,362.15c0-9.97-7.72-17.03-17.24-17.03s-17.23,7.06-17.23,17.03,7.72,17.03,17.23,17.03,17.24-7.06,17.24-17.03Z"/>
    <path class="st1" d="M531.96,335.08h11.77l27.47,36.61v-36.61h11.82v54.14h-11.65l-27.52-36.55v36.55h-11.89v-54.14Z"/>
  </g>
  <g>
    <polygon class="st0" points="351.37 221.7 450.61 221.7 450.65 239.27 351.37 277.5 351.37 221.7"/>
    <polygon class="st1" points="450.6 251.24 450.63 306.21 365.42 306.21 450.6 251.24"/>
    <polygon class="st1" points="496.13 221.77 450.63 251.22 450.63 239.31 496.13 221.77"/>
  </g>
</svg>